<svg xmlns="http://www.w3.org/2000/svg" version="1.1" xmlns:xlink="http://www.w3.org/1999/xlink" xmlns:svgjs="http://svgjs.dev/svgjs" width="1000" height="1000" viewBox="0 0 1000 1000"><rect width="1000" height="1000" fill="#ffffff"></rect><g transform="matrix(0.7,0,0,0.7,149.57575757575756,428.9099310344828)"><svg xmlns="http://www.w3.org/2000/svg" version="1.1" xmlns:xlink="http://www.w3.org/1999/xlink" xmlns:svgjs="http://svgjs.com/svgjs" viewBox="0 0 396 80" data-background-color="#ffffff" preserveAspectRatio="xMidYMid meet" height="202" width="1000"><defs></defs><g id="tight-bounds" transform="matrix(1,0,0,1,0.2400000000000091,0.22068965517240713)"><svg viewBox="0 0 395.52 79.55862068965516" height="79.55862068965516" width="395.52"><g><svg viewBox="0 0 395.52 79.55862068965516" height="79.55862068965516" width="395.52"><g><svg viewBox="0 0 395.52 79.55862068965516" height="79.55862068965516" width="395.52"><g><svg viewBox="0 0 395.52 79.55862068965516" height="79.55862068965516" width="395.52"><g><svg viewBox="0 0 395.52 79.55862068965516" height="79.55862068965516" width="395.52"><g transform="matrix(1,0,0,1,0,0)"><svg width="395.52" viewBox="0.8500000000000014 -35.5 191.4 35.5" height="79.55862068965516" data-palette-color="#277bc0"><svg xmlns="http://www.w3.org/2000/svg" version="1.1" xmlns:xlink="http://www.w3.org/1999/xlink" xmlns:svgjs="http://svgjs.com/svgjs"></svg><g class="undefined-text-0" data-fill-palette-color="primary" id="text-0"><path d="M29.85-35.5v4h-12.25v31.5h-4.5v-31.5h-12.25v-4zM27.85 0l14.55-35.5h3.8l14.5 35.5h-4.8l-4.2-10.4h-14.9l-4.15 10.4zM37.7-13.9h13l-6.4-16.4zM89.5-35.5h4.5v35.5h-4.5v-16.15h-19.55v16.15h-4.5v-35.5h4.5v15.35h19.55zM121.65-19.85l-6.15-15.45h4.25l4.7 12.35 4.75-12.35h4.25l-6.15 15.45 6.1 14.65 12-30.3h4.9l-14.85 35.5h-3.9l-7.05-16.75-7.1 16.75h-3.9l-14.8-35.5h4.85l12.05 30.3zM159.45 0h-4.5v-35.5h4.5zM192.25 0h-24.3v-35.5h4.5v31.5h19.8z" data-fill-palette-color="primary" fill="#000000" opacity="1"></path></g></svg></g></svg></g></svg></g></svg></g></svg></g></svg><rect width="395.52" height="79.55862068965516" fill="none" stroke="none" visibility="hidden"></rect></g></svg></g></svg>