<?xml version="1.0" encoding="UTF-8"?>
<!DOCTYPE svg PUBLIC "-//W3C//DTD SVG 1.1//EN" "http://www.w3.org/Graphics/SVG/1.1/DTD/svg11.dtd">
<!-- Creator: CorelDRAW 2018 (64-Bit) -->
<svg xmlns="http://www.w3.org/2000/svg" xml:space="preserve" width="158.55mm" height="33.615mm" version="1.1" style="shape-rendering:geometricPrecision; text-rendering:geometricPrecision; image-rendering:optimizeQuality; fill-rule:evenodd; clip-rule:evenodd"
viewBox="0 0 15855.06 3361.5"
 xmlns:xlink="http://www.w3.org/1999/xlink">
 <defs>
  <style type="text/css">
   <![CDATA[
    .fil0 {fill:#333333}
    .fil1 {fill:#A41316}
    .fil2 {fill:#333333;fill-rule:nonzero}
    .fil3 {fill:#A41316;fill-rule:nonzero}
   ]]>
  </style>
 </defs>
 <g id="Слой_x0020_1">
  <metadata id="CorelCorpID_0Corel-Layer"/>
  <g id="_2995441352784">
   <path class="fil0" d="M772.65 2420.23c0,47.09 53.42,98.56 99.88,98.56l1231.07 0c189.2,0 343.99,156.88 343.99,348.63l0 85.81c0,191.74 -154.79,348.63 -343.99,348.63l-1674.94 0 -84.67 0c-2.95,0 -5.9,-0.04 -8.84,-0.12 -2.94,-0.07 -5.87,-0.19 -8.79,-0.34 -2.92,-0.15 -5.83,-0.34 -8.73,-0.56 -2.9,-0.23 -5.8,-0.49 -8.68,-0.79 -2.88,-0.3 -5.75,-0.64 -8.61,-1.01 -2.86,-0.37 -5.71,-0.77 -8.55,-1.22 -2.84,-0.44 -5.67,-0.92 -8.49,-1.43 -2.81,-0.52 -5.62,-1.06 -8.41,-1.65 -2.79,-0.58 -5.57,-1.2 -8.34,-1.85 -2.77,-0.65 -5.52,-1.34 -8.26,-2.06 -2.75,-0.72 -5.47,-1.47 -8.19,-2.26l0 0c-2.72,-0.78 -5.42,-1.6 -8.11,-2.45l0 0c-2.69,-0.86 -5.36,-1.74 -8.02,-2.66 -2.66,-0.92 -5.31,-1.87 -7.94,-2.85l0 0c-2.63,-0.98 -5.24,-1.99 -7.85,-3.04 -2.6,-1.04 -5.18,-2.12 -7.75,-3.22l0 0c-2.58,-1.11 -5.13,-2.25 -7.66,-3.41 -2.54,-1.17 -5.07,-2.37 -7.57,-3.6l0 0c-2.51,-1.23 -4.99,-2.48 -7.46,-3.77l-0.01 0c-2.47,-1.29 -4.92,-2.61 -7.35,-3.95 -2.44,-1.35 -4.86,-2.72 -7.26,-4.12 -2.4,-1.41 -4.78,-2.84 -7.15,-4.3l0 0c-2.37,-1.46 -4.71,-2.94 -7.04,-4.46l0 0c-2.32,-1.52 -4.63,-3.06 -6.92,-4.63l0 0c-2.29,-1.57 -4.56,-3.17 -6.81,-4.79 -2.24,-1.63 -4.48,-3.28 -6.68,-4.96l0 0c-2.21,-1.67 -4.4,-3.38 -6.57,-5.11l0 0c-2.17,-1.73 -4.31,-3.48 -6.44,-5.26 -2.12,-1.78 -4.23,-3.58 -6.31,-5.42l-0.01 0c-2.08,-1.83 -4.14,-3.68 -6.18,-5.56l0 0c-2.03,-1.88 -4.05,-3.78 -6.04,-5.71l-0.01 0c-1.99,-1.93 -3.96,-3.88 -5.91,-5.85 -1.95,-1.97 -3.87,-3.97 -5.77,-5.99l-0.01 -0.01c-1.9,-2.02 -3.77,-4.06 -5.63,-6.13l0 0c-1.85,-2.06 -3.68,-4.15 -5.49,-6.26l0 0c-1.81,-2.11 -3.58,-4.25 -5.34,-6.4 -1.76,-2.15 -3.49,-4.33 -5.19,-6.53 -1.71,-2.2 -3.39,-4.42 -5.05,-6.65l0 0c-1.65,-2.24 -3.28,-4.5 -4.88,-6.78 -1.6,-2.28 -3.18,-4.58 -4.73,-6.9 -1.55,-2.32 -3.07,-4.66 -4.57,-7.02l0 0c-1.49,-2.35 -2.96,-4.73 -4.4,-7.13l0 0c-1.44,-2.39 -2.86,-4.81 -4.24,-7.24 -1.39,-2.43 -2.74,-4.89 -4.07,-7.36 -1.33,-2.47 -2.63,-4.95 -3.9,-7.46 -1.27,-2.5 -2.51,-5.03 -3.72,-7.56 -1.21,-2.54 -2.39,-5.1 -3.55,-7.67 -1.15,-2.57 -2.27,-5.16 -3.36,-7.77 -1.09,-2.6 -2.16,-5.22 -3.19,-7.86 -1.02,-2.63 -2.03,-5.28 -2.99,-7.95l-0.01 0c-0.96,-2.67 -1.9,-5.35 -2.8,-8.04 -0.91,-2.7 -1.78,-5.41 -2.62,-8.14 -0.84,-2.72 -1.65,-5.46 -2.43,-8.21 -0.77,-2.76 -1.52,-5.52 -2.23,-8.3l0 0c-0.71,-2.78 -1.38,-5.57 -2.03,-8.38l0 0c-0.64,-2.8 -1.25,-5.62 -1.82,-8.45l0 0c-0.58,-2.83 -1.12,-5.67 -1.63,-8.52l0 -0.01c-0.5,-2.85 -0.98,-5.72 -1.41,-8.59 -0.44,-2.88 -0.84,-5.77 -1.21,-8.67l0 0c-0.36,-2.9 -0.7,-5.81 -0.99,-8.73l0 0c-0.29,-2.92 -0.56,-5.85 -0.78,-8.79l0 0c-0.22,-2.94 -0.41,-5.9 -0.56,-8.85l0 -0.01c-0.15,-2.95 -0.26,-5.92 -0.33,-8.9l0 0c-0.08,-2.98 -0.12,-5.96 -0.12,-8.96l0 -0.01 0 -85.8 0 -2370.67 0 -85.81 0 -2.68c0,-191.75 154.8,-348.63 343.99,-348.63l84.67 0c14.4,0 28.59,0.92 42.54,2.68l2823.12 0c189.19,0 343.98,156.89 343.98,348.63l0 85.81c0,191.75 -154.79,348.63 -343.98,348.63l-2361.59 0c-76.38,0 -160.08,85.77 -160.08,162.24l0 1412.61z"/>
   <path class="fil1" d="M2910.65 2953.23l0 -704.62c0,-82.02 -89.75,-174.99 -170.67,-174.99l-811.01 0c-189.2,0 -343.99,-156.88 -343.99,-348.63l0 -85.81c0,-191.74 154.79,-348.63 343.99,-348.63l1412.97 0c189.21,0 343.99,156.89 343.99,348.63l0 85.81c0,14.59 -0.91,28.96 -2.64,43.09l0 1185.15c0,191.74 -154.8,348.63 -343.99,348.63l-84.67 0c-189.19,0 -343.98,-156.89 -343.98,-348.63z"/>
  </g>
  <g id="_2995441351024">
   <path class="fil2" d="M5316.11 3266.5c82.05,29.24 281.85,95 588.66,95 167.69,0 442.4,-18.26 656.46,-193.65 285.41,-233.84 288.98,-540.76 288.98,-811.14l0 -544.42c0,-270.38 -14.27,-555.38 -231.9,-800.19 -107.03,-120.57 -310.39,-274.03 -645.75,-274.03 -610.07,0 -913.33,500.57 -913.33,924.41 0,350.77 174.82,635.77 445.97,789.23 124.86,69.42 267.57,105.96 406.71,105.96 99.9,0 217.63,-25.58 338.93,-120.58l0 -467.69c-96.33,120.58 -224.76,135.19 -303.25,135.19 -71.36,0 -142.71,-14.61 -206.93,-47.5 -128.43,-65.76 -224.76,-208.26 -224.76,-401.92 0,-292.3 217.63,-464.03 445.96,-464.03 146.27,0 249.74,58.46 324.66,153.46 107.03,138.85 107.03,292.31 107.03,438.46l0 559.03c0,164.42 3.57,325.19 -139.14,453.07 -121.3,105.97 -292.55,113.27 -388.88,113.27 -110.6,0 -267.57,-14.61 -549.42,-95l0 453.07zm2318.99 -708.83l0 -2557.67 -456.66 0 0 2557.67 456.66 0zm278.28 -887.88c0,518.84 403.15,931.72 909.76,931.72 506.61,0 909.76,-412.88 909.76,-931.72 0,-518.84 -403.15,-931.72 -909.76,-931.72 -506.61,0 -909.76,412.88 -909.76,931.72zm456.67 0c0,-270.38 199.79,-478.65 453.09,-478.65 253.31,0 453.1,208.27 453.1,478.65 0,270.38 -199.79,478.65 -453.1,478.65 -253.3,0 -453.09,-208.27 -453.09,-478.65zm2097.79 -887.87l0 -475 -456.66 0 0 1560.18c0,186.34 -10.7,438.45 203.36,595.57 146.27,105.96 328.23,95 463.8,95l121.3 0 0 -453.08 -121.3 0c-206.93,0 -210.5,-131.53 -210.5,-237.49l0 -632.11 331.8 0 0 -453.07 -331.8 0zm1020.36 1775.75l0 -781.92c0,-197.3 28.54,-522.49 424.56,-522.49l64.22 0 0 -493.27 -57.09 0c-103.46,0 -385.31,14.62 -478.07,358.08l0 -336.15 -410.28 0 0 1775.75 456.66 0zm667.16 -591.92c-196.22,0 -296.12,160.77 -296.12,303.27 0,142.49 99.9,303.26 296.12,303.26 196.22,0 296.12,-160.77 296.12,-303.26 0,-142.5 -99.9,-303.27 -296.12,-303.27z"/>
   <path class="fil3" d="M14167.55 781.92l-456.67 0 0 1023.06c0,113.27 -7.13,230.19 -132,306.92 -39.25,25.58 -82.06,36.54 -128.44,36.54 -46.38,0 -89.19,-10.96 -128.43,-36.54 -124.87,-76.73 -132.01,-193.65 -132.01,-306.92l0 -1023.06 -456.66 0 0 964.6c0,281.34 14.27,569.99 346.06,759.99 114.17,65.77 242.61,95 371.04,95 128.44,0 256.87,-29.23 371.04,-95 331.8,-190 346.07,-478.65 346.07,-756.34l0 -968.25zm356.77 453.07l713.53 0 -631.48 697.87c-110.6,124.23 -196.22,197.31 -196.22,347.12 0,270.38 235.47,277.69 363.9,277.69l1077.44 0 0 -453.08 -767.05 0 592.24 -668.64c71.35,-80.39 178.38,-200.96 178.38,-376.34 0,-274.04 -249.74,-277.69 -367.47,-277.69l-963.27 0 0 453.07z"/>
  </g>
 </g>
</svg>
