<svg width="157" height="58" viewBox="0 0 157 58" fill="none" xmlns="http://www.w3.org/2000/svg">
<path fill-rule="evenodd" clip-rule="evenodd" d="M18.5283 46.4797V58L46.187 40.7154V17.6747L36.9674 23.4308V34.9593L18.5283 46.4797Z" fill="#0095DA"/>
<path fill-rule="evenodd" clip-rule="evenodd" d="M18.5289 58V46.4796L9.30939 40.7154V17.6746L36.968 34.9593V23.4307L0.0898438 0.390015V46.4796L18.5289 58Z" fill="#FFE4AF"/>
<path fill-rule="evenodd" clip-rule="evenodd" d="M9.30957 17.6747L18.5291 23.4308V34.9593L9.30957 40.7154V17.6747Z" fill="#0095DA"/>
<path fill-rule="evenodd" clip-rule="evenodd" d="M60.0088 40.6178H64.4641V21.1055H60.0088V40.6178ZM60.0088 18.3819H64.4641V13.3494H60.0088V18.3819ZM66.7812 40.6178H79.9357C80.6029 40.6453 81.2685 40.5342 81.8906 40.2914C82.5126 40.0487 83.0776 39.6796 83.5498 39.2074C84.0219 38.7352 84.391 38.1703 84.6338 37.5482C84.8765 36.9262 84.9877 36.2605 84.9601 35.5934V34.4307C84.9601 31.9185 83.4886 30.3657 80.5129 29.7885L72.9682 28.2437C71.8056 28.0486 71.2283 27.4307 71.2283 26.5039C71.2283 25.6909 71.7731 25.1462 72.9682 25.1462H82.83L84.1877 23.7966V21.0892H71.8056C71.1384 21.0617 70.4728 21.1728 69.8507 21.4156C69.2287 21.6583 68.6637 22.0274 68.1915 22.4996C67.7194 22.9718 67.3502 23.5367 67.1075 24.1588C66.8647 24.7808 66.7536 25.4465 66.7812 26.1136V27.2763C66.7812 29.7885 68.2527 31.3413 71.2283 31.9185L78.7731 33.4633C79.9357 33.699 80.5129 34.2763 80.5129 35.2031C80.5129 35.9755 79.9682 36.5608 78.7731 36.5608H66.7812V40.6259V40.6178ZM87.2772 40.6178H91.7325V28.4226C91.7325 26.1055 93.0821 24.7559 95.4073 24.7559H99.6593C100 24.7087 100.348 24.7411 100.674 24.8507C101 24.9602 101.297 25.1439 101.54 25.3873C101.784 25.6307 101.967 25.9272 102.077 26.2535C102.186 26.5799 102.219 26.9271 102.172 27.2681V40.6096H106.619V26.0892C106.637 25.3733 106.509 24.6612 106.243 23.9962C105.977 23.3312 105.579 22.7272 105.073 22.2208C104.566 21.7144 103.962 21.3162 103.297 21.0504C102.632 20.7846 101.92 20.6567 101.204 20.6746H96.326C95.0775 20.6382 93.8573 21.0507 92.887 21.8372C92.4933 22.1677 92.1532 22.5571 91.8788 22.9917H91.6918V14.1217H87.2365V40.6178H87.2772ZM109.326 40.6178H114.204V35.5934H109.326V40.6178ZM116.773 35.5934C116.757 36.309 116.885 37.0206 117.151 37.685C117.418 38.3495 117.816 38.9531 118.322 39.4593C118.828 39.9654 119.432 40.3636 120.096 40.6298C120.761 40.896 121.472 41.0247 122.188 41.008H127.22C128.516 41.0338 129.777 40.5922 130.773 39.7641C131.214 39.4111 131.583 38.978 131.863 38.4877H132.05L132.863 40.6178H136.115V21.1055H131.668V33.3007C131.716 33.7951 131.653 34.2941 131.486 34.7617C131.318 35.2293 131.049 35.654 130.697 36.0053C130.346 36.3566 129.921 36.6258 129.454 36.7935C128.986 36.9613 128.487 37.0234 127.993 36.9755H123.733C123.392 37.021 123.045 36.9874 122.72 36.8772C122.394 36.7671 122.099 36.5833 121.856 36.3403C121.613 36.0973 121.429 35.8015 121.319 35.476C121.209 35.1505 121.175 34.8039 121.22 34.4633V21.0892H116.773V35.5934ZM138.822 40.6178H156.806V36.5527H145.424V36.3576L156.806 24.7559V21.0811H139.042V23.7884L140.391 25.138H150.253V25.3332L138.871 36.9348L138.822 40.6178Z" fill="#58595B"/>
</svg>
